<svg width="18" height="18" viewBox="0 0 18 18" fill="none" xmlns="http://www.w3.org/2000/svg">
<g clip-path="url(#clip0)">
<path d="M17.6481 4.51244L9.17546 1.52307C9.06194 1.48299 8.93809 1.48299 8.82457 1.52307L0.351914 4.51244C0.141258 4.58676 0.000281671 4.78575 4.21419e-07 5.00913C-0.000280829 5.23251 0.140239 5.43181 0.350719 5.50663L8.82338 8.51871C8.8805 8.53903 8.94027 8.54919 9 8.54919C9.05977 8.54919 9.1195 8.53903 9.17662 8.51871L17.6493 5.50663C17.8598 5.43181 18.0002 5.23251 18 5.00913C17.9997 4.78575 17.8587 4.58676 17.6481 4.51244Z" fill="black"/>
<path d="M16.7334 11.5514V6.95157L15.6787 7.32651V11.5514C15.361 11.7343 15.147 12.0769 15.147 12.4697C15.147 12.8626 15.361 13.2052 15.6787 13.388V15.9796C15.6787 16.2709 15.9148 16.507 16.2061 16.507C16.4973 16.507 16.7334 16.2709 16.7334 15.9796V13.3881C17.0511 13.2053 17.2651 12.8626 17.2651 12.4698C17.2651 12.0769 17.0511 11.7343 16.7334 11.5514Z" fill="black"/>
<path d="M9.00002 9.6039C8.819 9.6039 8.64072 9.57313 8.47011 9.51249L3.70703 7.81918V10.1398C3.70703 10.7075 4.29931 11.1877 5.46741 11.5668C6.48557 11.8973 7.74016 12.0793 9.00002 12.0793C10.2599 12.0793 11.5144 11.8973 12.5326 11.5668C13.7007 11.1877 14.293 10.7075 14.293 10.1398V7.81918L9.52996 9.51249C9.35931 9.57313 9.18104 9.6039 9.00002 9.6039Z" fill="black"/>
</g>
<defs>
<clipPath id="clip0">
<rect width="18" height="18" fill="white"/>
</clipPath>
</defs>
</svg>
