<svg width="106" height="70" viewBox="0 0 106 70" fill="none" xmlns="http://www.w3.org/2000/svg">
<path d="M88 35C88 54.33 72.33 70 53 70C33.67 70 18 54.33 18 35C18 15.67 33.67 0 53 0C72.33 0 88 15.67 88 35Z" fill="white"/>
<path d="M83 17C88.057 26.4987 93.3669 32.4969 106 35H88L83 17Z" fill="white"/>
<path d="M23 17C17.943 26.4987 12.6331 32.4969 0 35H18L23 17Z" fill="white"/>
<circle cx="53" cy="35" r="30" fill="#8E9FE2"/>
<path d="M42.5504 24.7907C43.6774 22.8385 44.241 21.8625 45.1692 21.3266C46.0974 20.7907 47.2244 20.7907 49.4786 20.7907L56.8222 20.7907C59.0764 20.7907 60.2034 20.7907 61.1316 21.3266C62.0598 21.8625 62.6234 22.8385 63.7504 24.7907L67.4222 31.1505C68.5493 33.1026 69.1128 34.0787 69.1128 35.1505C69.1128 36.2223 68.5493 37.1983 67.4222 39.1505L63.7504 45.5102C62.6234 47.4624 62.0598 48.4384 61.1316 48.9743C60.2034 49.5102 59.0764 49.5102 56.8222 49.5102L49.4786 49.5102C47.2245 49.5102 46.0974 49.5102 45.1692 48.9743C44.241 48.4384 43.6774 47.4624 42.5504 45.5102L38.8786 39.1505C37.7515 37.1983 37.188 36.2223 37.188 35.1505C37.188 34.0787 37.7515 33.1026 38.8786 31.1505L42.5504 24.7907Z" fill="white"/>
</svg>
