<svg width="60" height="60" viewBox="0 0 60 60" fill="none" xmlns="http://www.w3.org/2000/svg">
<circle cx="30" cy="30" r="30" fill="#8E9FE2"/>
<path d="M19.0504 19.2906C20.1774 17.3385 20.741 16.3624 21.6692 15.8265C22.5974 15.2906 23.7244 15.2906 25.9786 15.2906L33.3222 15.2906C35.5764 15.2906 36.7034 15.2906 37.6316 15.8265C38.5598 16.3624 39.1234 17.3385 40.2504 19.2906L43.9222 25.6504C45.0493 27.6025 45.6128 28.5786 45.6128 29.6504C45.6128 30.7222 45.0493 31.6983 43.9222 33.6504L40.2504 40.0102C39.1234 41.9623 38.5598 42.9384 37.6316 43.4743C36.7034 44.0102 35.5764 44.0102 33.3222 44.0102L25.9786 44.0102C23.7245 44.0102 22.5974 44.0102 21.6692 43.4743C20.741 42.9384 20.1774 41.9623 19.0504 40.0102L15.3786 33.6504C14.2515 31.6983 13.688 30.7222 13.688 29.6504C13.688 28.5786 14.2515 27.6025 15.3786 25.6504L19.0504 19.2906Z" fill="white"/>
</svg>
