<svg width="74" height="48" viewBox="0 0 74 48" fill="none" xmlns="http://www.w3.org/2000/svg">
<path d="M61 24C61 37.2548 50.2548 48 37 48C23.7452 48 13 37.2548 13 24C13 10.7452 23.7452 0 37 0C50.2548 0 61 10.7452 61 24Z" fill="white"/>
<path d="M17 11C13.2622 17.8601 9.33749 22.1922 0 24H13.3043L17 11Z" fill="white"/>
<path d="M57 11C60.7378 17.8601 64.6625 22.1922 74 24H60.6957L57 11Z" fill="white"/>
<circle cx="37" cy="24" r="20" fill="url(#paint0_linear)"/>
<path d="M29.2638 18.5271C30.3909 16.575 30.9544 15.5989 31.8826 15.063C32.8108 14.5271 33.9379 14.5271 36.192 14.5271L38.0085 14.5271C40.2627 14.5271 41.3897 14.5271 42.3179 15.063C43.2462 15.5989 43.8097 16.575 44.9368 18.5271L45.845 20.1003C46.9721 22.0524 47.5356 23.0285 47.5356 24.1003C47.5356 25.1721 46.9721 26.1482 45.845 28.1003L44.9367 29.6735C43.8097 31.6256 43.2462 32.6017 42.3179 33.1376C41.3897 33.6735 40.2627 33.6735 38.0085 33.6735L36.192 33.6735C33.9379 33.6735 32.8108 33.6735 31.8826 33.1376C30.9544 32.6017 30.3909 31.6256 29.2638 29.6735L28.3555 28.1003C27.2284 26.1482 26.6649 25.1721 26.6649 24.1003C26.6649 23.0285 27.2284 22.0524 28.3555 20.1003L29.2638 18.5271Z" fill="white"/>
<defs>
<linearGradient id="paint0_linear" x1="17" y1="4" x2="57" y2="44" gradientUnits="userSpaceOnUse">
<stop stop-color="#A8B5EB"/>
<stop offset="1" stop-color="#4258AF"/>
</linearGradient>
</defs>
</svg>
