<svg width="18" height="18" viewBox="0 0 18 18" fill="none" xmlns="http://www.w3.org/2000/svg">
<circle cx="9" cy="9" r="9" fill="black"/>
<path d="M9 5C7.83689 5 6.89062 5.94627 6.89062 7.10938C6.89062 8.27248 7.83689 9.21875 9 9.21875C10.1631 9.21875 11.1094 8.27248 11.1094 7.10938C11.1094 5.94627 10.1631 5 9 5Z" fill="white"/>
<path d="M11.6245 10.5725C11.047 9.98616 10.2814 9.66324 9.46875 9.66324H8.53125C7.71863 9.66324 6.95303 9.98616 6.37553 10.5725C5.80086 11.156 5.48438 11.9263 5.48438 12.7414C5.48438 12.8708 5.58931 12.9757 5.71875 12.9757H12.2812C12.4107 12.9757 12.5156 12.8708 12.5156 12.7414C12.5156 11.9263 12.1991 11.156 11.6245 10.5725Z" fill="white"/>
</svg>
